<svg width="256.000000" height="104.000000" viewBox="0 0 256 104" fill="none" xmlns="http://www.w3.org/2000/svg" xmlns:xlink="http://www.w3.org/1999/xlink">
	<desc>
			Created with Pixso.
	</desc>
	<defs/>
	<path d="M21.12 99.4L14.11 81.18L24.39 54.51L30.93 71.5L69.52 71.47L58.57 99.65L21.12 99.4Z" fill="#FFAD64" fill-opacity="1.000000" fill-rule="nonzero"/>
	<path d="M76.41 53.38L69.4 71.6L48.87 71.57L55.41 54.57L36.09 4.42L57.83 4.56L76.41 53.38Z" fill="#ADD4D3" fill-opacity="1.000000" fill-rule="nonzero"/>
	<path d="M22.2 4.32L36.21 4.32L46.46 31.03L33.38 31.03L14.11 81.21L3.32 52.88L22.2 4.32Z" fill="#FB8351" fill-opacity="1.000000" fill-rule="nonzero"/>
	<path d="M37.92 0.1L37.88 0L20.54 0L0 52.86L14.1 89.9L14.12 89.86L19.45 103.72L60.22 104L74.54 67.14L74.44 67.14L79.73 53.39L59.51 0.25L37.92 0.1ZM51.34 35.36L51.45 35.36L41.25 8.78L56.15 8.88L73.08 53.37L67.78 67.15L53.89 67.16L58.74 54.57L51.34 35.36ZM34.39 8.65L41.34 26.7L31.72 26.7L15.24 69.6L14.12 72.51L6.65 52.91L23.85 8.65L34.39 8.65ZM27.71 54.47L35.05 35.36L44.68 35.36L52.08 54.57L47.23 67.16L32.59 67.17L27.71 54.47ZM17.44 81.2L20.24 73.93L24.39 63.16L29.27 75.83L43.9 75.82L43.88 75.88L64.45 75.92L56.92 95.32L22.79 95.09L17.44 81.2Z" fill="#333237" fill-opacity="1.000000" fill-rule="evenodd"/>
	<path d="M96.53 88.94L96.53 68.67L91.54 68.67L91.54 66.4L103.43 66.4L103.43 68.67L98.44 68.67L98.44 88.94L96.53 88.94Z" fill="#FFFFFF" fill-opacity="1.000000" fill-rule="nonzero"/>
	<path d="M108.74 89.29C106.77 89.29 105.29 88.57 104.31 87.15C103.34 85.73 102.85 83.53 102.85 80.57C102.85 77.91 103.27 75.82 104.1 74.31C104.96 72.77 106.3 72 108.14 72C109.23 72 110.12 72.3 110.82 72.91C111.53 73.49 112.06 74.31 112.41 75.36C112.76 76.38 112.94 77.55 112.94 78.86L112.94 81.97L104.76 81.97C104.82 83.23 105 84.22 105.29 84.95C105.6 85.67 106.06 86.19 106.67 86.52C107.29 86.82 108.11 86.98 109.12 86.98C110.25 86.98 111.29 86.68 112.24 86.1L112.24 88.34C111.76 88.64 111.22 88.88 110.61 89.04C110.02 89.2 109.4 89.29 108.74 89.29ZM104.76 79.91L111.24 79.91L111.24 78.54C111.24 77.19 111 76.15 110.52 75.43C110.05 74.68 109.27 74.31 108.19 74.31C106.86 74.31 105.96 74.77 105.48 75.71C105 76.64 104.76 78.04 104.76 79.91Z" fill="#FFFFFF" fill-opacity="1.000000" fill-rule="nonzero"/>
	<path d="M120.97 89.29C119.04 89.29 117.61 88.54 116.68 87.05C115.74 85.53 115.28 83.39 115.28 80.64C115.28 77.72 115.81 75.55 116.86 74.13C117.92 72.71 119.34 72 121.13 72C121.86 72 122.47 72.08 122.95 72.24C123.43 72.38 123.9 72.61 124.35 72.94L124.35 75.22C123.51 74.61 122.55 74.31 121.48 74.31C120.11 74.31 119.05 74.8 118.31 75.78C117.56 76.73 117.19 78.35 117.19 80.64C117.19 82.83 117.52 84.44 118.17 85.47C118.82 86.47 119.9 86.98 121.41 86.98C122.48 86.98 123.47 86.67 124.37 86.07L124.37 88.38C123.89 88.68 123.37 88.9 122.81 89.04C122.26 89.2 121.65 89.29 120.97 89.29Z" fill="#FFFFFF" fill-opacity="1.000000" fill-rule="nonzero"/>
	<path d="M126.51 88.94L126.51 65.35L128.43 65.35L128.43 74.13C128.94 73.5 129.54 72.99 130.22 72.59C130.92 72.19 131.73 72 132.65 72C133.98 72 134.99 72.49 135.65 73.47C136.32 74.45 136.66 75.99 136.66 78.09L136.66 88.94L134.75 88.94L134.75 78.19C134.75 76.74 134.53 75.74 134.09 75.18C133.67 74.6 132.97 74.31 131.99 74.31C131.37 74.31 130.73 74.52 130.06 74.94C129.41 75.33 128.86 75.86 128.43 76.51L128.43 88.94L126.51 88.94Z" fill="#FFFFFF" fill-opacity="1.000000" fill-rule="nonzero"/>
	<path d="M144.28 89.29C142.73 89.29 141.48 88.77 140.55 87.75C139.62 86.72 139.15 85.34 139.15 83.62C139.15 82.03 139.48 80.66 140.13 79.52C140.78 78.38 141.68 77.36 142.81 76.48C142.21 75.57 141.69 74.71 141.27 73.92C140.85 73.13 140.64 72.17 140.64 71.05C140.64 69.65 140.96 68.47 141.6 67.52C142.25 66.54 143.17 66.05 144.35 66.05C145.5 66.05 146.4 66.5 147.03 67.41C147.67 68.32 147.99 69.53 147.99 71.05C147.99 72.31 147.76 73.37 147.31 74.24C146.86 75.1 146.22 75.97 145.38 76.86L149.25 82.78C149.51 81.91 149.64 80.82 149.64 79.49L149.64 79L151.16 79L151.16 79.49C151.16 80.4 151.09 81.28 150.95 82.15C150.81 83.01 150.61 83.76 150.34 84.39L152.44 87.57L151.28 89.15L149.41 86.38C148.87 87.38 148.16 88.12 147.29 88.59C146.42 89.05 145.42 89.29 144.28 89.29ZM144.19 75.46C144.92 74.78 145.47 74.14 145.84 73.54C146.22 72.91 146.4 72.11 146.4 71.16C146.4 70.27 146.24 69.57 145.91 69.06C145.6 68.52 145.08 68.25 144.35 68.25C143.61 68.25 143.06 68.53 142.72 69.09C142.39 69.65 142.23 70.34 142.23 71.16C142.23 71.9 142.4 72.59 142.74 73.22C143.1 73.85 143.58 74.6 144.19 75.46ZM144.28 87.22C145.18 87.22 145.95 87.02 146.59 86.63C147.24 86.21 147.79 85.59 148.25 84.77L143.98 78.23C142.97 78.93 142.21 79.68 141.72 80.5C141.24 81.29 140.99 82.31 140.99 83.55C140.99 84.76 141.31 85.68 141.93 86.31C142.55 86.92 143.33 87.22 144.28 87.22Z" fill="#FB8351" fill-opacity="1.000000" fill-rule="nonzero"/>
	<path d="M92.29 50.03L92.29 18.83L98.36 18.83L98.36 43.06L107.73 43.06L107.73 50.03L92.29 50.03Z" fill="#FB8351" fill-opacity="1.000000" fill-rule="nonzero"/>
	<path d="M117.49 50.52C114.43 50.52 112.17 49.5 110.71 47.47C109.27 45.43 108.55 42.46 108.55 38.55C108.55 34.67 109.28 31.72 110.74 29.68C112.21 27.61 114.46 26.58 117.49 26.58C120.55 26.58 122.81 27.61 124.27 29.68C125.75 31.72 126.5 34.67 126.5 38.55C126.5 42.46 125.77 45.43 124.3 47.47C122.84 49.5 120.57 50.52 117.49 50.52ZM117.49 43.88C118.48 43.88 119.19 43.46 119.62 42.62C120.07 41.78 120.3 40.42 120.3 38.55C120.3 36.71 120.07 35.37 119.62 34.53C119.19 33.65 118.48 33.22 117.49 33.22C116.52 33.22 115.82 33.65 115.39 34.53C114.96 35.37 114.75 36.71 114.75 38.55C114.75 40.42 114.96 41.78 115.39 42.62C115.82 43.46 116.52 43.88 117.49 43.88Z" fill="#FB8351" fill-opacity="1.000000" fill-rule="nonzero"/>
	<path d="M135.49 58.56C134.73 58.56 133.91 58.52 133.03 58.42C132.15 58.35 131.31 58.22 130.51 58.03C129.74 57.84 129.09 57.61 128.58 57.35L128.58 51.54C129.16 51.83 129.83 52.07 130.58 52.26C131.35 52.46 132.14 52.6 132.94 52.7C133.73 52.8 134.46 52.85 135.13 52.85C136.27 52.85 137.16 52.75 137.81 52.55C138.48 52.39 138.81 52.09 138.81 51.63C138.81 51.25 138.7 50.99 138.49 50.86C138.27 50.76 137.86 50.71 137.26 50.71L133.23 50.71C131.66 50.71 130.44 50.34 129.58 49.6C128.74 48.82 128.32 47.68 128.32 46.16C128.32 44.03 129.1 42.54 130.67 41.7C129.79 41.02 129.15 40.16 128.74 39.13C128.33 38.1 128.13 36.79 128.13 35.21C128.13 32.23 128.79 30.05 130.13 28.66C131.48 27.27 133.43 26.58 135.97 26.58C136.51 26.58 137.11 26.64 137.78 26.77C138.45 26.87 138.93 26.97 139.23 27.06L145.24 27.06L145.11 32.59L143.07 32.59C143.46 33.33 143.65 34.24 143.65 35.3C143.65 37.66 143.19 39.53 142.27 40.92C141.36 42.28 139.93 42.96 137.97 42.96C137.69 42.96 137.39 42.94 137.07 42.91C136.75 42.85 136.44 42.8 136.16 42.77C135.69 42.83 135.28 42.96 134.94 43.15C134.59 43.35 134.42 43.67 134.42 44.12C134.42 44.45 134.52 44.67 134.71 44.8C134.91 44.9 135.17 44.95 135.52 44.95L139.04 44.95C140.61 44.95 141.85 45.5 142.75 46.59C143.65 47.69 144.11 49.31 144.11 51.44C144.11 53.7 143.41 55.45 142.01 56.67C140.61 57.93 138.43 58.56 135.49 58.56ZM136 37.97C136.95 37.97 137.61 37.73 137.97 37.24C138.34 36.76 138.52 35.95 138.52 34.82C138.52 33.69 138.34 32.86 137.97 32.35C137.61 31.83 136.95 31.57 136 31.57C135.12 31.57 134.47 31.83 134.07 32.35C133.68 32.83 133.48 33.65 133.48 34.82C133.48 35.92 133.67 36.72 134.03 37.24C134.42 37.73 135.08 37.97 136 37.97Z" fill="#FB8351" fill-opacity="1.000000" fill-rule="nonzero"/>
	<path d="M155.13 50.52C152.08 50.52 149.82 49.5 148.35 47.47C146.91 45.43 146.19 42.46 146.19 38.55C146.19 34.67 146.92 31.72 148.39 29.68C149.85 27.61 152.1 26.58 155.13 26.58C158.19 26.58 160.45 27.61 161.91 29.68C163.4 31.72 164.14 34.67 164.14 38.55C164.14 42.46 163.41 45.43 161.95 47.47C160.48 49.5 158.21 50.52 155.13 50.52ZM155.13 43.88C156.12 43.88 156.83 43.46 157.26 42.62C157.72 41.78 157.94 40.42 157.94 38.55C157.94 36.71 157.72 35.37 157.26 34.53C156.83 33.65 156.12 33.22 155.13 33.22C154.17 33.22 153.47 33.65 153.03 34.53C152.6 35.37 152.39 36.71 152.39 38.55C152.39 40.42 152.6 41.78 153.03 42.62C153.47 43.46 154.17 43.88 155.13 43.88Z" fill="#FB8351" fill-opacity="1.000000" fill-rule="nonzero"/>
	<path d="M166.81 24.01L166.81 17.42L173.36 17.42L173.36 24.01L166.81 24.01ZM167.29 50.03L167.29 33.7L165.07 33.7L165.58 27.06L173.36 27.06L173.36 50.03L167.29 50.03Z" fill="#FFFFFF" fill-opacity="1.000000" fill-rule="nonzero"/>
	<path d="M176.27 60.5L176.27 27.06L181.54 27.06L181.83 28.91C182.45 28.16 183.13 27.6 183.86 27.21C184.61 26.79 185.49 26.58 186.48 26.58C188.76 26.58 190.51 27.45 191.74 29.2C192.99 30.91 193.61 33.83 193.61 37.97C193.61 42.07 192.95 45.19 191.64 47.32C190.33 49.45 188.52 50.52 186.22 50.52C184.69 50.52 183.4 50.08 182.34 49.21L182.34 60.5L176.27 60.5ZM184.67 43.88C185.55 43.88 186.23 43.41 186.7 42.47C187.18 41.54 187.41 40.08 187.41 38.11C187.41 36.21 187.19 34.91 186.73 34.24C186.3 33.56 185.64 33.22 184.73 33.22C183.83 33.22 183.03 33.67 182.34 34.58L182.34 42.72C182.69 43.1 183.03 43.4 183.38 43.59C183.72 43.78 184.15 43.88 184.67 43.88Z" fill="#FFFFFF" fill-opacity="1.000000" fill-rule="nonzero"/>
	<path d="M201.7 50.52C200.39 50.52 199.15 50.37 197.99 50.08C196.85 49.82 195.94 49.49 195.27 49.07L195.27 42.52C196.03 43.04 196.92 43.44 197.95 43.73C199.01 44.03 199.9 44.17 200.63 44.17C201.41 44.17 201.99 44.14 202.38 44.07C202.79 44.01 202.99 43.73 202.99 43.25C202.99 42.7 202.64 42.28 201.93 41.99C201.22 41.7 200.32 41.28 199.25 40.73C197.85 39.99 196.8 39.11 196.11 38.11C195.43 37.11 195.08 35.66 195.08 33.75C195.08 31.46 195.68 29.7 196.89 28.47C198.09 27.21 199.99 26.58 202.57 26.58C203.56 26.58 204.58 26.69 205.64 26.92C206.69 27.14 207.52 27.4 208.12 27.69L208.12 34.09C207.48 33.67 206.77 33.36 205.99 33.17C205.24 32.98 204.55 32.88 203.93 32.88C203.24 32.88 202.62 32.93 202.09 33.02C201.55 33.12 201.28 33.4 201.28 33.85C201.28 34.37 201.58 34.74 202.18 34.96C202.81 35.19 203.64 35.54 204.67 36.03C205.83 36.55 206.74 37.11 207.38 37.73C208.05 38.34 208.51 39.08 208.77 39.95C209.05 40.83 209.19 41.91 209.19 43.2C209.19 45.53 208.55 47.34 207.28 48.63C206.03 49.89 204.17 50.52 201.7 50.52Z" fill="#FFFFFF" fill-opacity="1.000000" fill-rule="nonzero"/>
	<path d="M217.01 50.52C215.22 50.52 213.83 49.76 212.81 48.24C211.8 46.72 211.3 44.49 211.3 41.55L211.3 27.06L217.37 27.06L217.37 40.83C217.37 42.83 218.05 43.83 219.4 43.83C219.9 43.83 220.38 43.67 220.85 43.35C221.33 43.02 221.7 42.62 221.98 42.13L221.98 27.06L228.05 27.06L228.05 50.03L222.37 50.03L222.21 48.29C221.61 48.94 220.86 49.47 219.98 49.89C219.12 50.31 218.13 50.52 217.01 50.52Z" fill="#FFFFFF" fill-opacity="1.000000" fill-rule="nonzero"/>
	<path d="M230.94 50.03L230.94 27.06L236.56 27.06L236.72 28.91C237.39 28.23 238.13 27.68 238.95 27.26C239.79 26.81 240.7 26.58 241.69 26.58C242.68 26.58 243.46 26.79 244.02 27.21C244.58 27.63 245.03 28.24 245.37 29.05C246.06 28.31 246.84 27.71 247.7 27.26C248.58 26.81 249.61 26.58 250.8 26.58C252.58 26.58 253.9 27.29 254.74 28.71C255.58 30.1 256 32.23 256 35.11L256 50.03L250.02 50.03L250.02 36.17C250.02 35.14 249.88 34.41 249.6 33.99C249.32 33.54 248.86 33.32 248.21 33.32C247.37 33.32 246.69 33.77 246.15 34.67C246.19 35.09 246.21 35.5 246.21 35.88C246.21 36.24 246.21 36.64 246.21 37.1L246.21 50.03L240.6 50.03L240.6 36.03C240.6 35.09 240.49 34.41 240.27 33.99C240.06 33.54 239.65 33.32 239.05 33.32C238.64 33.32 238.24 33.48 237.85 33.8C237.46 34.12 237.12 34.51 236.82 34.96L236.82 50.03L230.94 50.03Z" fill="#FFFFFF" fill-opacity="1.000000" fill-rule="nonzero"/>
	<path d="M162.33 89.58C160.71 89.58 159.37 89.12 158.29 88.21C157.24 87.28 156.45 85.98 155.92 84.33C155.39 82.65 155.12 80.69 155.12 78.45C155.12 76 155.37 73.86 155.87 72.04C156.37 70.22 157.14 68.82 158.2 67.84C159.26 66.84 160.63 66.34 162.3 66.34C163.17 66.34 163.96 66.43 164.66 66.62C165.37 66.8 166.04 67.06 166.67 67.39L166.67 69.91C166.04 69.56 165.38 69.29 164.68 69.1C163.98 68.89 163.25 68.79 162.47 68.79C161.12 68.79 160.04 69.17 159.25 69.94C158.46 70.71 157.89 71.82 157.55 73.27C157.21 74.71 157.03 76.44 157.03 78.45C157.03 81.22 157.47 83.37 158.34 84.89C159.23 86.38 160.62 87.13 162.51 87.13C163.21 87.13 163.92 87.04 164.64 86.88C165.37 86.72 166.04 86.46 166.67 86.11L166.67 88.67C166.06 88.95 165.4 89.17 164.68 89.33C163.98 89.49 163.2 89.58 162.33 89.58Z" fill="#FFFFFF" fill-opacity="1.000000" fill-rule="nonzero"/>
	<path d="M174.52 89.57C172.59 89.57 171.18 88.84 170.3 87.37C169.43 85.88 168.99 83.73 168.99 80.93C168.99 78.15 169.43 76.02 170.32 74.52C171.21 73.03 172.61 72.28 174.52 72.28C176.43 72.28 177.83 73.03 178.71 74.52C179.6 76.02 180.04 78.15 180.04 80.93C180.04 83.73 179.61 85.88 178.74 87.37C177.87 88.84 176.46 89.57 174.52 89.57ZM174.52 87.12C175.84 87.12 176.77 86.63 177.31 85.65C177.86 84.65 178.13 83.08 178.13 80.93C178.13 78.78 177.85 77.22 177.29 76.24C176.75 75.24 175.82 74.73 174.52 74.73C173.21 74.73 172.28 75.24 171.72 76.24C171.18 77.22 170.9 78.78 170.9 80.93C170.9 83.08 171.18 84.65 171.72 85.65C172.26 86.63 173.19 87.12 174.52 87.12Z" fill="#FFFFFF" fill-opacity="1.000000" fill-rule="nonzero"/>
	<path d="M182.38 89.23L182.38 86.81L184.11 86.81L184.11 89.23L182.38 89.23Z" fill="#FFFFFF" fill-opacity="1.000000" fill-rule="nonzero"/>
</svg>
